Genre:Action | Adventure | Drama
Language:English
IMDb:http://www.imdb.com/title/tt1456941/
Source:MoRT.Thx


Format : MPEG-4
Format profile : Base Media
Codec ID : isom
File size : 790 MiB
Duration : 1h 39mn
Overall bit rate : 1 109 Kbps


Video
Codec ID : avc1
Codec ID/Info : Advanced Video Coding
Duration : 1h 39mn
Bit rate mode : Variable
Bit rate : 943 Kbps
Width : 720 pixels
Height : 304 pixels
Display aspect ratio : 2.35:1
Frame rate mode : Constant
Frame rate : 23.976 fps
Original frame rate : 23.000 fps
Color space : YUV
Chroma subsampling : 4:2:0
Bit depth : 8 bits
Scan type : Progressive
Bits/(Pixel*Frame) : 0.180
Stream size : 671 MiB (85%)

Audio
ID : 1
Format : AAC
Format/Info : Advanced Audio Codec
Format version : Version 4
Format profile : LC
Codec ID : 40
Duration : 1h 39mn
Bit rate mode : Constant
Bit rate : 160 Kbps
Channel(s) : 2 channels
Channel positions : Front: L R
Sampling rate : 48.0 KHz
Stream size : 114 MiB (14%)
Language : English


Plot:
When their country is invaded and their families are taken, eight unlikely high school teenagers band together to fight.


Screenshots:

 
http://www.leetleech.org/images/43098025681109930222.png


ENJOY!